<svg width="22" height="21" viewBox="0 0 22 21" fill="none" xmlns="http://www.w3.org/2000/svg">
<g clip-path="url(#clip0)">
<path d="M17.9216 7.81567H10.2242C9.2795 7.81567 8.51367 8.5815 8.51367 9.5262V17.2236C8.51367 18.1683 9.2795 18.9341 10.2242 18.9341H17.9216C18.8663 18.9341 19.6321 18.1683 19.6321 17.2236V9.5262C19.6321 8.5815 18.8663 7.81567 17.9216 7.81567Z" stroke="black" stroke-width="1.71053" stroke-linecap="round" stroke-linejoin="round"/>
<path d="M5.09313 12.9473H4.23787C3.78421 12.9473 3.34913 12.7671 3.02835 12.4463C2.70756 12.1255 2.52734 11.6904 2.52734 11.2368V3.53938C2.52734 3.08572 2.70756 2.65064 3.02835 2.32986C3.34913 2.00907 3.78421 1.82886 4.23787 1.82886H11.9352C12.3889 1.82886 12.824 2.00907 13.1448 2.32986C13.4655 2.65064 13.6458 3.08572 13.6458 3.53938V4.39465" stroke="black" stroke-width="1.71053" stroke-linecap="round" stroke-linejoin="round"/>
</g>
<defs>
<clipPath id="clip0">
<rect width="20.5263" height="20.5263" fill="white" transform="translate(0.816406 0.118408)"/>
</clipPath>
</defs>
</svg>
