<svg width="276" height="188" viewBox="0 0 276 188" fill="none" xmlns="http://www.w3.org/2000/svg">
<path d="M80.1421 177.308C82.0978 175.432 85.1492 175.432 86.9574 177.308C88.7657 179.184 88.6462 182.226 86.6905 184.103C84.7348 185.979 81.6835 185.979 79.8752 184.103C78.0669 182.227 78.1864 179.185 80.1421 177.308Z" fill="#0D47A1"/>
<path d="M261.818 57.7607C258.13 57.6887 255.197 54.7625 255.266 51.2248C255.335 47.6872 258.381 44.8777 262.069 44.9497C265.757 45.0217 268.69 47.9479 268.62 51.4856C268.551 55.0232 265.505 57.8327 261.818 57.7607Z" fill="#0D47A1"/>
<path d="M28.3722 133.728C27.0428 135.003 27.0015 137.113 28.2798 138.439C29.5581 139.765 31.6719 139.806 33.0013 138.531C34.3306 137.256 34.3719 135.147 33.0937 133.82C31.8154 132.494 29.7015 132.453 28.3722 133.728Z" fill="#E1E4E5"/>
<path d="M224.145 35.6436C225.759 34.7549 226.346 32.7284 225.456 31.1172C224.565 29.506 222.534 28.9202 220.919 29.8089C219.304 30.6976 218.717 32.7241 219.608 34.3353C220.499 35.9465 222.53 36.5322 224.145 35.6436Z" fill="#E1E4E5"/>
<path d="M261.653 112.033C263.497 112.069 265.021 110.607 265.057 108.767C265.093 106.927 263.628 105.407 261.784 105.371C259.94 105.335 258.416 106.797 258.38 108.637C258.344 110.476 259.809 111.997 261.653 112.033Z" fill="#E1E4E5"/>
<path d="M19.1362 61.7965C22.9941 59.6735 27.8464 61.0728 29.9741 64.9219C32.1019 68.7709 30.6995 73.6122 26.8416 75.7352C22.9838 77.8581 18.1315 76.4588 16.0037 72.6098C13.876 68.7607 15.2784 63.9194 19.1362 61.7965Z" fill="#0D47A1"/>
<path d="M51.3834 17.0802C53.2113 16.0743 55.5104 16.7373 56.5185 18.561C57.5267 20.3848 56.8622 22.6786 55.0343 23.6845C53.2064 24.6904 50.9073 24.0274 49.8991 22.2037C48.891 20.3799 49.5555 18.0861 51.3834 17.0802Z" fill="#E1E4E5"/>
<path d="M226.225 172.13C222.091 170.938 219.709 166.628 220.903 162.504C222.098 158.38 226.417 156.003 230.551 157.195C234.684 158.387 237.067 162.697 235.872 166.821C234.677 170.945 230.358 173.322 226.225 172.13Z" fill="#0D47A1"/>
<path fill-rule="evenodd" clip-rule="evenodd" d="M58.1113 115.051V70.4287C58.1113 55.4173 66.1132 41.5397 79.1116 33.987L121.374 9.44609C127.829 5.69936 135.164 3.72559 142.632 3.72559C150.1 3.72559 157.435 5.69936 163.89 9.44609L206.153 33.987C219.161 41.5397 227.163 55.4173 227.163 70.4287V115.051C227.163 130.062 219.161 143.939 206.163 151.492L163.9 176.033C157.445 179.78 150.11 181.754 142.642 181.754C135.174 181.754 127.839 179.78 121.384 176.033L79.1211 151.492C66.1132 143.939 58.1113 130.062 58.1113 115.051Z" fill="#0D47A1"/>
<path d="M142.628 125.537C141.332 125.537 140.28 126.586 140.289 127.879C140.289 128.5 140.537 129.096 140.977 129.535C141.417 129.975 142.014 130.221 142.637 130.222C143.26 130.221 143.857 129.974 144.297 129.535C144.737 129.096 144.985 128.5 144.985 127.879C144.985 127.571 144.923 127.266 144.805 126.981C144.686 126.696 144.512 126.438 144.293 126.22C144.074 126.003 143.814 125.83 143.529 125.713C143.243 125.596 142.937 125.536 142.628 125.537M142.637 92.7398V50.5732V92.7398Z" stroke="white" stroke-width="20" stroke-linecap="round" stroke-linejoin="round"/>
</svg>