<svg width="80" height="49" viewBox="0 0 80 49" fill="none" xmlns="http://www.w3.org/2000/svg">
<path d="M2.57469 46.4253V41.6156C2.57628 39.4842 3.28567 37.4138 4.59148 35.7293C5.89729 34.0448 7.72557 32.8416 9.78925 32.3088" stroke="#1C1C1C" stroke-width="3.09195" stroke-linecap="round" stroke-linejoin="round"/>
<path d="M16.2708 26.6143C20.8724 26.6143 24.6028 22.8839 24.6028 18.2822C24.6028 13.6806 20.8724 9.95019 16.2708 9.95019C11.6691 9.95019 7.93872 13.6806 7.93872 18.2822C7.93872 22.8839 11.6691 26.6143 16.2708 26.6143Z" stroke="#1C1C1C" stroke-width="2.67816" stroke-linecap="round" stroke-linejoin="round"/>
<path d="M58.2887 46.4253V41.6335C58.2887 39.0917 57.4014 36.6541 55.8221 34.8568C54.2428 33.0595 52.1007 32.0498 49.8672 32.0498H33.0243C30.7908 32.0498 28.6488 33.0595 27.0694 34.8568C25.4901 36.6541 24.6028 39.0917 24.6028 41.6335V46.4253" stroke="#1C1C1C" stroke-width="3.09195" stroke-linecap="round" stroke-linejoin="round"/>
<path d="M42.3845 21.8135C47.6971 21.8135 52.0039 17.5068 52.0039 12.1941C52.0039 6.88147 47.6971 2.57471 42.3845 2.57471C37.0718 2.57471 32.7651 6.88147 32.7651 12.1941C32.7651 17.5068 37.0718 21.8135 42.3845 21.8135Z" stroke="#1C1C1C" stroke-width="3.09195" stroke-linecap="round" stroke-linejoin="round"/>
<path d="M66.6207 27.1775C71.2224 27.1775 74.9528 23.4471 74.9528 18.8455C74.9528 14.2438 71.2224 10.5134 66.6207 10.5134C62.019 10.5134 58.2886 14.2438 58.2886 18.8455C58.2886 23.4471 62.019 27.1775 66.6207 27.1775Z" stroke="#1C1C1C" stroke-width="2.67816" stroke-linecap="round" stroke-linejoin="round"/>
<path d="M76.9107 46.4253V41.6156C76.9091 39.4842 76.1997 37.4138 74.8939 35.7293C73.5881 34.0448 71.7598 32.8416 69.6961 32.3088" stroke="#1C1C1C" stroke-width="3.09195" stroke-linecap="round" stroke-linejoin="round"/>
</svg>
